<svg width="20" height="16" viewBox="0 0 20 16" fill="none" xmlns="http://www.w3.org/2000/svg">
<path d="M2.26993 15.9911C1.26595 15.9911 0.642113 14.9001 1.15135 14.0349L8.88141 0.900604C9.38332 0.0478024 10.6167 0.0478024 11.1186 0.900604L18.8487 14.0349C19.3579 14.9001 18.734 15.9911 17.7301 15.9911H2.26993ZM10 14.0885C10.3786 14.0885 10.7006 13.9558 10.9661 13.6903C11.2365 13.4199 11.3717 13.0954 11.3717 12.7168C11.3717 12.3382 11.2365 12.0162 10.9661 11.7507C10.7006 11.4803 10.3786 11.3451 10 11.3451C9.62144 11.3451 9.29695 11.4803 9.02655 11.7507C8.76106 12.0162 8.62832 12.3382 8.62832 12.7168C8.62832 13.0954 8.76106 13.4199 9.02655 13.6903C9.29695 13.9558 9.62144 14.0885 10 14.0885ZM9.07649 8.77908C9.08974 9.2796 9.4993 9.67847 10 9.67847C10.5007 9.67847 10.9103 9.2796 10.9235 8.77908L11.0051 5.6958C11.0201 5.13027 10.5657 4.66372 10 4.66372C9.43427 4.66372 8.9799 5.13027 8.99487 5.6958L9.07649 8.77908Z" fill="#EB0909"/>
</svg>
